<?xml version="1.0" encoding="UTF-8"?>
<svg xmlns="http://www.w3.org/2000/svg" xmlns:xlink="http://www.w3.org/1999/xlink" width="80pt" height="40pt" viewBox="0 0 80 40" version="1.1">
<g id="surface1">
<path style=" stroke:none;fill-rule:nonzero;fill:rgb(0%,0%,0%);fill-opacity:1;" d="M 33.964844 27.769531 C 33.964844 27.878906 33.792969 27.964844 33.582031 27.964844 C 33.339844 27.980469 33.167969 27.894531 33.167969 27.769531 C 33.167969 27.65625 33.339844 27.574219 33.550781 27.574219 C 33.773438 27.554688 33.964844 27.640625 33.964844 27.769531 Z M 31.675781 27.523438 C 31.625 27.632812 31.773438 27.761719 31.992188 27.789062 C 32.183594 27.84375 32.40625 27.789062 32.449219 27.683594 C 32.492188 27.574219 32.355469 27.445312 32.132812 27.398438 C 31.941406 27.359375 31.730469 27.414062 31.675781 27.523438 Z M 34.925781 27.429688 C 34.714844 27.46875 34.566406 27.574219 34.589844 27.699219 C 34.609375 27.804688 34.800781 27.878906 35.023438 27.835938 C 35.234375 27.800781 35.382812 27.699219 35.359375 27.589844 C 35.339844 27.488281 35.140625 27.414062 34.925781 27.429688 Z M 39.765625 6.578125 C 29.566406 6.578125 21.765625 12.308594 21.765625 19.855469 C 21.765625 25.890625 26.898438 31.054688 34.230469 32.875 C 35.167969 32.996094 35.5 32.566406 35.5 32.214844 C 35.5 31.878906 35.476562 30.015625 35.476562 28.875 C 35.476562 28.875 30.332031 29.6875 29.25 27.25 C 29.25 27.25 28.414062 25.667969 27.207031 25.261719 C 27.207031 25.261719 25.523438 24.402344 27.324219 24.425781 C 27.324219 24.425781 29.15625 24.53125 30.164062 25.828125 C 31.773438 27.925781 34.472656 27.324219 35.523438 26.964844 C 35.691406 26.09375 36.167969 25.488281 36.699219 25.128906 C 32.589844 24.792969 28.441406 24.351562 28.441406 19.113281 C 28.441406 17.621094 29 16.867188 30.175781 15.914062 C 29.988281 15.558594 29.363281 14.097656 30.367188 12.21875 C 31.90625 11.863281 35.441406 13.6875 35.441406 13.6875 C 36.910156 13.378906 38.492188 13.226562 40.058594 13.226562 C 41.625 13.226562 43.207031 13.378906 44.675781 13.6875 C 44.675781 13.6875 48.210938 11.859375 49.75 12.21875 C 50.757812 14.105469 50.132812 15.558594 49.941406 15.914062 C 51.117188 16.875 51.835938 17.625 51.835938 19.113281 C 51.835938 24.367188 47.507812 24.785156 43.398438 25.128906 C 44.074219 25.558594 44.648438 26.378906 44.648438 27.652344 C 44.648438 29.488281 44.625 31.757812 44.625 32.199219 C 44.625 32.554688 44.960938 32.988281 45.894531 32.863281 C 53.25 31.054688 58.234375 25.890625 58.234375 19.855469 C 58.234375 12.308594 49.960938 6.578125 39.765625 6.578125 Z M 28.914062 25.34375 C 28.816406 25.402344 28.839844 25.523438 28.964844 25.632812 C 29.082031 25.714844 29.25 25.753906 29.347656 25.683594 C 29.441406 25.632812 29.421875 25.503906 29.296875 25.402344 C 29.175781 25.3125 29.007812 25.277344 28.914062 25.34375 Z M 28.117188 24.90625 C 28.066406 24.980469 28.140625 25.0625 28.289062 25.117188 C 28.40625 25.175781 28.550781 25.152344 28.605469 25.082031 C 28.65625 25.011719 28.582031 24.921875 28.433594 24.867188 C 28.289062 24.835938 28.171875 24.851562 28.117188 24.90625 Z M 30.5 26.84375 C 30.382812 26.910156 30.425781 27.078125 30.597656 27.179688 C 30.765625 27.308594 30.980469 27.324219 31.074219 27.234375 C 31.171875 27.164062 31.125 27 30.980469 26.898438 C 30.816406 26.773438 30.597656 26.757812 30.5 26.84375 Z M 29.664062 26.042969 C 29.546875 26.101562 29.546875 26.238281 29.664062 26.363281 C 29.78125 26.492188 29.980469 26.542969 30.074219 26.492188 C 30.191406 26.417969 30.191406 26.28125 30.074219 26.152344 C 29.972656 26.027344 29.78125 25.972656 29.664062 26.042969 Z M 29.664062 26.042969 "/>
</g>
</svg>
