<?xml version="1.0" standalone="no"?>
<!DOCTYPE svg PUBLIC "-//W3C//DTD SVG 20010904//EN"
 "http://www.w3.org/TR/2001/REC-SVG-20010904/DTD/svg10.dtd">
<svg version="1.0" xmlns="http://www.w3.org/2000/svg"
 width="900.000000pt" height="580.000000pt" viewBox="0 0 900.000000 580.000000"
 preserveAspectRatio="xMidYMid meet">

<g transform="translate(0.000000,580.000000) scale(0.100000,-0.100000)"
fill="#000000" stroke="none">
<path d="M1576 5784 c-80 -19 -155 -64 -214 -128 -55 -61 -75 -98 -97 -182
-13 -51 -15 -346 -15 -2544 0 -2687 -3 -2536 51 -2642 29 -58 103 -133 164
-168 111 -64 -65 -60 2656 -60 1742 0 2493 3 2534 11 157 29 291 151 331 301
21 79 21 5037 0 5116 -39 146 -161 260 -317 297 -94 22 -5001 21 -5093 -1z
m1112 -796 c226 -72 371 -311 335 -549 -30 -192 -177 -354 -368 -405 -64 -18
-186 -18 -251 0 -128 34 -252 131 -311 242 -214 403 160 851 595 712z m2672
-1283 c444 -68 682 -319 764 -805 32 -190 37 -374 34 -1190 l-3 -805 -430 0
-430 0 -5 830 c-5 817 -6 831 -28 908 -58 209 -173 304 -377 315 -110 5 -190
-9 -270 -47 -129 -62 -196 -159 -241 -352 -16 -66 -18 -160 -23 -864 l-6 -790
-427 -3 -428 -2 0 1375 0 1375 415 0 415 0 0 -182 0 -183 37 55 c129 193 377
340 628 373 75 10 289 6 375 -8z m-2400 -1430 l0 -1375 -430 0 -430 0 0 1373
c0 756 2 1376 4 1378 2 2 196 3 430 1 l426 -2 0 -1375z"/>
</g>
</svg>
