<?xml version="1.0" encoding="UTF-8"?>
<svg xmlns="http://www.w3.org/2000/svg" xmlns:xlink="http://www.w3.org/1999/xlink" width="80pt" height="40pt" viewBox="0 0 80 40" version="1.1">
<g id="surface1">
<path style=" stroke:none;fill-rule:nonzero;fill:rgb(0%,0%,0%);fill-opacity:1;" d="M 12.765625 0.234375 C 6.734375 0.96875 1.632812 3.601562 0.367188 6.632812 C -0.132812 7.867188 -0.132812 32.132812 0.367188 33.367188 C 1.667969 36.484375 7.035156 39.164062 13.265625 39.816406 C 15.734375 40.066406 64.265625 40.066406 66.734375 39.816406 C 72.964844 39.164062 78.332031 36.484375 79.632812 33.367188 C 80.132812 32.132812 80.132812 7.867188 79.632812 6.632812 C 78.332031 3.515625 72.964844 0.835938 66.734375 0.183594 C 64.101562 -0.0859375 15.101562 -0.0507812 12.765625 0.234375 Z M 24.234375 5.683594 C 27.964844 6.585938 28.464844 9.335938 25.132812 10.601562 C 24.035156 11.015625 23.601562 11.085938 21.667969 11.085938 C 19.734375 11.085938 19.300781 11.015625 18.199219 10.601562 C 14.867188 9.351562 15.367188 6.601562 19.066406 5.683594 C 20.867188 5.234375 22.398438 5.234375 24.234375 5.683594 Z M 26.667969 22.5 L 26.667969 31.664062 L 16.667969 31.664062 L 16.667969 13.335938 L 26.667969 13.335938 Z M 43.332031 14.71875 L 43.332031 16.101562 L 45.265625 15.148438 C 47.933594 13.851562 50.132812 13.433594 54.332031 13.433594 C 57.066406 13.414062 57.765625 13.484375 59.367188 13.851562 C 63 14.699219 65.167969 16.085938 66.167969 18.183594 C 66.566406 19.03125 66.667969 20.5 66.667969 25.449219 L 66.667969 31.664062 L 56.667969 31.664062 L 56.667969 26.617188 C 56.667969 21.234375 56.5 20.566406 55 19.5 C 54.035156 18.816406 52.035156 18.335938 50.167969 18.335938 C 47.667969 18.335938 45.535156 19.015625 44.234375 20.25 C 43.535156 20.882812 43.5 21.148438 43.398438 26.28125 L 43.300781 31.664062 L 33.332031 31.664062 L 33.332031 13.335938 L 43.332031 13.335938 Z M 43.332031 14.71875 "/>
</g>
</svg>
